<svg xmlns="http://www.w3.org/2000/svg" version="1.1" xmlns:xlink="http://www.w3.org/1999/xlink" xmlns:svgjs="http://svgjs.dev/svgjs" width="1500" height="1500" viewBox="0 0 1500 1500"><rect width="1500" height="1500" fill="#000000"></rect><g transform="matrix(0.6666666666666666,0,0,0.6666666666666666,249.39393939393938,662.6398291865703)"><svg viewBox="0 0 396 69" data-background-color="#000000" preserveAspectRatio="xMidYMid meet" height="261" width="1500" xmlns="http://www.w3.org/2000/svg" xmlns:xlink="http://www.w3.org/1999/xlink"><g id="tight-bounds" transform="matrix(1,0,0,1,0.2400000000000091,0.1428263570497279)"><svg viewBox="0 0 395.52 68.71434728590054" height="68.71434728590054" width="395.52"><g><svg viewBox="0 0 460.5383882980336 80.0101" height="68.71434728590054" width="395.52"><g><svg viewBox="0 0 460.5383882980336 80.0101" height="80.0101" width="460.5383882980336"><g id="textblocktransform"><svg viewBox="0 0 460.5383882980336 80.0101" height="80.0101" width="460.5383882980336" id="textblock"><g><svg viewBox="0 0 460.5383882980336 80.0101" height="80.0101" width="460.5383882980336"><g><svg><g></g><g></g></svg></g><g><svg><g></g><g><svg></svg></g></svg></g><g id="text-0"><svg viewBox="0 0 460.5383882980336 80.0101" height="80.0101" width="460.5383882980336"><g><svg xmlns="http://www.w3.org/2000/svg" xmlns:xlink="http://www.w3.org/1999/xlink" version="1.1" x="0" y="0" viewBox="2.474 31.334000000000003 94.902 39.566" enable-background="new 0 0 100 100" xml:space="preserve" height="80.0101" width="191.91018829803363" class="icon-cg-0" data-fill-palette-color="accent" id="cg-0"></svg></g><g transform="matrix(1,0,0,1,210.80008829803364,0)"><svg width="249.7383" viewBox="3.15 -40.5 154.32999999999998 49.45" height="80.0101" data-palette-color="url(#ce094081-69a4-4991-b0ec-e851d057b3e8)"></svg></g></svg></g></svg></g></svg></g></svg></g></svg></g><defs></defs><mask id="c5e0d99c-364a-4428-8db8-870ec1206f20"><g id="SvgjsG1130"><svg viewBox="0 0 395.52 68.71434728590054" height="68.71434728590054" width="395.52"><g><svg viewBox="0 0 460.5383882980336 80.0101" height="68.71434728590054" width="395.52"><g><svg viewBox="0 0 460.5383882980336 80.0101" height="80.0101" width="460.5383882980336"><g id="SvgjsG1129"><svg viewBox="0 0 460.5383882980336 80.0101" height="80.0101" width="460.5383882980336" id="SvgjsSvg1128"><g><svg viewBox="0 0 460.5383882980336 80.0101" height="80.0101" width="460.5383882980336"><g><svg><g></g><g></g></svg></g><g><svg><g></g><g><svg></svg></g></svg></g><g id="SvgjsG1127"><svg viewBox="0 0 460.5383882980336 80.0101" height="80.0101" width="460.5383882980336"><g><svg xmlns="http://www.w3.org/2000/svg" xmlns:xlink="http://www.w3.org/1999/xlink" version="1.1" x="0" y="0" viewBox="2.474 31.334000000000003 94.902 39.566" enable-background="new 0 0 100 100" xml:space="preserve" height="80.0101" width="191.91018829803363" class="icon-cg-0" data-fill-palette-color="accent" id="SvgjsSvg1126"><g fill="black"><path d="M92.292 35.549H76.211v-0.821c0-1.871-1.522-3.394-3.395-3.394H27.033c-1.872 0-3.395 1.522-3.395 3.394v0.821H7.558c-2.804 0-5.084 2.281-5.084 5.083v25.184c0 2.802 2.28 5.084 5.084 5.084h84.734c2.803 0 5.084-2.282 5.084-5.084V40.632C97.376 37.83 95.095 35.549 92.292 35.549zM94.562 65.815c0 1.251-1.019 2.27-2.27 2.27H7.558c-1.252 0-2.271-1.019-2.271-2.27V40.632c0-1.251 1.019-2.27 2.271-2.27h17.488c0.776 0 1.406-0.629 1.406-1.406v-2.229c0-0.319 0.261-0.58 0.581-0.58h45.783c0.32 0 0.58 0.261 0.58 0.58v2.229c0 0.777 0.631 1.406 1.407 1.406h17.488c1.251 0 2.27 1.019 2.27 2.27V65.815z" fill="black"></path><path d="M89.97 63.221H74.728c-0.776 0-1.407 0.631-1.407 1.406 0 0.777 0.631 1.408 1.407 1.408H89.97c0.776 0 1.407-0.631 1.407-1.408C91.377 63.852 90.746 63.221 89.97 63.221z" fill="black"></path><path d="M70.279 63.221H59.903c-0.777 0-1.407 0.631-1.407 1.406 0 0.777 0.63 1.408 1.407 1.408h10.376c0.776 0 1.407-0.631 1.407-1.408C71.687 63.852 71.056 63.221 70.279 63.221z" fill="black"></path><path d="M56.206 63.221H28.255c-0.776 0-1.406 0.631-1.406 1.406 0 0.777 0.63 1.408 1.406 1.408h27.951c0.776 0 1.407-0.631 1.407-1.408C57.613 63.852 56.982 63.221 56.206 63.221z" fill="black"></path><path d="M24.234 63.221H9.879c-0.777 0-1.406 0.631-1.406 1.406 0 0.777 0.629 1.408 1.406 1.408h14.355c0.777 0 1.407-0.631 1.407-1.408C25.642 63.852 25.012 63.221 24.234 63.221z" fill="black"></path><path d="M89.97 57.709H74.728c-0.776 0-1.407 0.629-1.407 1.405 0 0.778 0.631 1.409 1.407 1.409H89.97c0.776 0 1.407-0.631 1.407-1.409C91.377 58.338 90.746 57.709 89.97 57.709z" fill="black"></path><path d="M70.297 57.709h-6.153c-0.776 0-1.407 0.629-1.407 1.405 0 0.778 0.631 1.409 1.407 1.409h6.153c0.776 0 1.407-0.631 1.407-1.409C71.704 58.338 71.073 57.709 70.297 57.709z" fill="black"></path><path d="M17.699 57.709c-0.777 0-1.406 0.629-1.406 1.405 0 0.778 0.629 1.409 1.406 1.409h42.224c0.776 0 1.407-0.631 1.407-1.409 0-0.776-0.631-1.405-1.407-1.405H17.699z" fill="black"></path><path d="M9.879 60.523h3.967c0.777 0 1.407-0.631 1.407-1.409 0-0.776-0.63-1.405-1.407-1.405H9.879c-0.777 0-1.406 0.629-1.406 1.405C8.473 59.893 9.102 60.523 9.879 60.523z" fill="black"></path><path d="M89.97 52.196H74.728c-0.776 0-1.407 0.63-1.407 1.406 0 0.777 0.631 1.407 1.407 1.407H89.97c0.776 0 1.407-0.63 1.407-1.407C91.377 52.826 90.746 52.196 89.97 52.196z" fill="black"></path><path d="M70.297 46.685h-4.759c-0.776 0-1.407 0.629-1.407 1.405 0 0.778 0.631 1.407 1.407 1.407h3.352v3.847c0 0.778 0.631 1.407 1.407 1.407s1.407-0.629 1.407-1.407V48.09C71.704 47.313 71.073 46.685 70.297 46.685z" fill="black"></path><path d="M66.863 53.603c0-0.776-0.631-1.406-1.407-1.406H20.04c-0.777 0-1.407 0.63-1.407 1.406 0 0.777 0.63 1.407 1.407 1.407h45.416C66.232 55.01 66.863 54.38 66.863 53.603z" fill="black"></path><path d="M9.879 55.01h6.02c0.776 0 1.406-0.63 1.406-1.407 0-0.776-0.63-1.406-1.406-1.406h-6.02c-0.777 0-1.406 0.63-1.406 1.406C8.473 54.38 9.102 55.01 9.879 55.01z" fill="black"></path><path d="M89.97 46.685H74.728c-0.776 0-1.407 0.629-1.407 1.405 0 0.778 0.631 1.407 1.407 1.407H89.97c0.776 0 1.407-0.629 1.407-1.407C91.377 47.313 90.746 46.685 89.97 46.685z" fill="black"></path><path d="M9.879 49.497h51.639c0.776 0 1.407-0.629 1.407-1.407 0-0.776-0.631-1.405-1.407-1.405H9.879c-0.777 0-1.406 0.629-1.406 1.405C8.473 48.868 9.102 49.497 9.879 49.497z" fill="black"></path><path d="M89.97 41.172H74.728c-0.776 0-1.407 0.63-1.407 1.406 0 0.777 0.631 1.407 1.407 1.407H89.97c0.776 0 1.407-0.63 1.407-1.407C91.377 41.802 90.746 41.172 89.97 41.172z" fill="black"></path><path d="M70.297 41.172h-9.518c-0.776 0-1.407 0.63-1.407 1.406 0 0.777 0.631 1.407 1.407 1.407h9.518c0.776 0 1.407-0.63 1.407-1.407C71.704 41.802 71.073 41.172 70.297 41.172z" fill="black"></path><path d="M43.385 43.985h12.964c0.776 0 1.407-0.63 1.407-1.407 0-0.776-0.631-1.406-1.407-1.406H43.385c-0.776 0-1.407 0.63-1.407 1.406C41.978 43.355 42.608 43.985 43.385 43.985z" fill="black"></path><path d="M23.773 43.985h15.181c0.776 0 1.407-0.63 1.407-1.407 0-0.776-0.631-1.406-1.407-1.406H23.773c-0.776 0-1.406 0.63-1.406 1.406C22.367 43.355 22.997 43.985 23.773 43.985z" fill="black"></path><path d="M9.879 43.985h9.957c0.777 0 1.406-0.63 1.406-1.407 0-0.776-0.629-1.406-1.406-1.406H9.879c-0.777 0-1.406 0.63-1.406 1.406C8.473 43.355 9.102 43.985 9.879 43.985z" fill="black"></path></g></svg></g><g transform="matrix(1,0,0,1,210.80008829803364,0)"><svg width="249.7383" viewBox="3.15 -40.5 154.32999999999998 49.45" height="80.0101" data-palette-color="url(#ce094081-69a4-4991-b0ec-e851d057b3e8)"><path d="M8.8 0L3.15 0 3.15-40.5 8.8-40.5 8.8-21.4 18.1-40.5 23.35-40.5 15.35-22.65 24.65 0 19.15 0 11.4-19 8.8-14.3 8.8 0ZM35.45 0.4L35.45 0.4Q32.05 0.4 30.2-0.93 28.35-2.25 27.62-4.83 26.9-7.4 26.9-11.15L26.9-11.15 26.9-17.75Q26.9-21.6 27.65-24.15 28.4-26.7 30.27-28 32.15-29.3 35.45-29.3L35.45-29.3Q39.1-29.3 40.82-27.8 42.55-26.3 43.1-23.48 43.65-20.65 43.65-16.7L43.65-16.7 43.65-14.35 32.25-14.35 32.25-8.55Q32.25-6.8 32.57-5.7 32.9-4.6 33.62-4.08 34.35-3.55 35.5-3.55L35.5-3.55Q36.7-3.55 37.32-4.13 37.95-4.7 38.17-5.78 38.4-6.85 38.4-8.3L38.4-8.3 38.4-10.05 43.6-10.05 43.6-8.95Q43.6-4.6 41.75-2.1 39.9 0.4 35.45 0.4ZM32.25-18.8L32.25-17.25 38.4-17.25 38.4-19.85Q38.4-21.65 38.2-22.88 38-24.1 37.37-24.73 36.75-25.35 35.4-25.35L35.4-25.35Q34.1-25.35 33.42-24.75 32.75-24.15 32.5-22.73 32.25-21.3 32.25-18.8L32.25-18.8ZM48.7 7.25L48.05 7.25 48.05 3.15Q50 3.15 51.15 2.98 52.3 2.8 52.8 2.33 53.3 1.85 53.3 1L53.3 1Q53.3 0.55 52.95-1 52.59-2.55 52.2-4.3L52.2-4.3 46.4-28.9 51.8-28.9 55.7-7.3 59.45-28.9 64.84-28.9 57.95 1.6Q57.5 3.7 56.3 4.93 55.09 6.15 53.22 6.7 51.34 7.25 48.7 7.25L48.7 7.25ZM75.14 0L69.79 0 69.79-24.95 66.34-24.95 66.34-28.9 69.79-28.9 69.79-30.4Q69.79-33.1 70.22-35.02 70.64-36.95 71.99-38 73.34-39.05 76.04-39.05L76.04-39.05Q77.04-39.05 77.82-38.98 78.59-38.9 79.54-38.7L79.54-38.7 79.54-34.8Q79.09-34.9 78.54-34.98 77.99-35.05 77.54-35.05L77.54-35.05Q75.99-35.05 75.57-34.02 75.14-33 75.14-31.3L75.14-31.3 75.14-28.9 79.54-28.9 79.54-24.95 75.14-24.95 75.14 0ZM90.39 0.4L90.39 0.4Q87.19 0.4 85.34-0.9 83.49-2.2 82.72-4.6 81.94-7 81.94-10.25L81.94-10.25 81.94-18.65Q81.94-21.9 82.72-24.3 83.49-26.7 85.34-28 87.19-29.3 90.39-29.3L90.39-29.3Q93.59-29.3 95.42-28 97.24-26.7 98.02-24.3 98.79-21.9 98.79-18.65L98.79-18.65 98.79-10.25Q98.79-7 98.02-4.6 97.24-2.2 95.42-0.9 93.59 0.4 90.39 0.4ZM90.39-3.55L90.39-3.55Q91.94-3.55 92.57-4.45 93.19-5.35 93.32-6.83 93.44-8.3 93.44-9.9L93.44-9.9 93.44-18.95Q93.44-20.6 93.32-22.05 93.19-23.5 92.57-24.43 91.94-25.35 90.39-25.35L90.39-25.35Q88.84-25.35 88.19-24.43 87.54-23.5 87.42-22.05 87.29-20.6 87.29-18.95L87.29-18.95 87.29-9.9Q87.29-8.3 87.42-6.83 87.54-5.35 88.19-4.45 88.84-3.55 90.39-3.55ZM109.19 0L103.84 0 103.84-28.9 109.19-28.9 109.19-24.8Q110.79-27.45 112.39-28.35 113.99-29.25 115.59-29.25L115.59-29.25Q115.79-29.25 115.96-29.25 116.14-29.25 116.44-29.2L116.44-29.2 116.44-23.3Q115.84-23.55 115.06-23.73 114.29-23.9 113.49-23.9L113.49-23.9Q112.24-23.9 111.21-23.33 110.19-22.75 109.19-21.1L109.19-21.1 109.19 0ZM127.24 8.95L127.24 8.95Q124.64 8.95 122.54 8.4 120.44 7.85 119.24 6.65 118.04 5.45 118.04 3.5L118.04 3.5Q118.04 2.1 118.64 1.05 119.24 0 120.19-0.78 121.14-1.55 122.19-2.05L122.19-2.05Q120.79-2.45 120.09-3.33 119.39-4.2 119.39-5.15L119.39-5.15Q119.39-6.75 120.24-7.9 121.09-9.05 122.59-10.4L122.59-10.4Q120.94-11.65 120.09-13.6 119.24-15.55 119.24-19L119.24-19Q119.24-22.4 120.16-24.68 121.09-26.95 122.91-28.13 124.74-29.3 127.39-29.3L127.39-29.3Q129.74-29.3 131.16-28.5 132.59-27.7 133.34-26.1L133.34-26.1Q133.59-26.5 134.69-27.48 135.79-28.45 137.24-29.1L137.24-29.1 138.04-29.45 139.39-26Q138.74-25.9 137.66-25.53 136.59-25.15 135.66-24.78 134.74-24.4 134.49-24.15L134.49-24.15Q134.84-23.3 135.11-21.7 135.39-20.1 135.39-18.85L135.39-18.85Q135.39-15.9 134.64-13.65 133.89-11.4 132.16-10.13 130.44-8.85 127.39-8.85L127.39-8.85Q126.74-8.85 125.99-8.95 125.24-9.05 124.64-9.2L124.64-9.2Q124.34-8.75 124.01-8.15 123.69-7.55 123.69-7L123.69-7Q123.69-6.45 124.26-6.13 124.84-5.8 126.09-5.7L126.09-5.7 130.59-5.3Q133.99-5 135.64-3.25 137.29-1.5 137.29 1.75L137.29 1.75Q137.29 4.1 136.19 5.73 135.09 7.35 132.86 8.15 130.64 8.95 127.24 8.95ZM127.64 4.75L127.64 4.75Q130.49 4.75 131.84 4.08 133.19 3.4 133.19 1.9L133.19 1.9Q133.19 1 132.86 0.4 132.54-0.2 131.69-0.55 130.84-0.9 129.24-1.05L129.24-1.05 124.69-1.45Q124.14-0.9 123.64-0.35 123.14 0.2 122.84 0.83 122.54 1.45 122.54 2.15L122.54 2.15Q122.54 3.45 123.64 4.1 124.74 4.75 127.64 4.75ZM127.39-12.6L127.39-12.6Q128.54-12.6 129.21-13.03 129.89-13.45 130.24-14.28 130.59-15.1 130.71-16.3 130.84-17.5 130.84-19L130.84-19Q130.84-20.5 130.71-21.73 130.59-22.95 130.26-23.83 129.94-24.7 129.26-25.15 128.59-25.6 127.44-25.6L127.44-25.6Q126.34-25.6 125.61-25.15 124.89-24.7 124.54-23.88 124.19-23.05 124.04-21.83 123.89-20.6 123.89-19L123.89-19Q123.89-17.65 124.01-16.48 124.14-15.3 124.51-14.45 124.89-13.6 125.59-13.1 126.29-12.6 127.39-12.6ZM149.28 0.4L149.28 0.4Q145.88 0.4 144.03-0.93 142.18-2.25 141.46-4.83 140.73-7.4 140.73-11.15L140.73-11.15 140.73-17.75Q140.73-21.6 141.48-24.15 142.23-26.7 144.11-28 145.98-29.3 149.28-29.3L149.28-29.3Q152.93-29.3 154.66-27.8 156.38-26.3 156.93-23.48 157.48-20.65 157.48-16.7L157.48-16.7 157.48-14.35 146.08-14.35 146.08-8.55Q146.08-6.8 146.41-5.7 146.73-4.6 147.46-4.08 148.18-3.55 149.33-3.55L149.33-3.55Q150.53-3.55 151.16-4.13 151.78-4.7 152.01-5.78 152.23-6.85 152.23-8.3L152.23-8.3 152.23-10.05 157.43-10.05 157.43-8.95Q157.43-4.6 155.58-2.1 153.73 0.4 149.28 0.4ZM146.08-18.8L146.08-17.25 152.23-17.25 152.23-19.85Q152.23-21.65 152.03-22.88 151.83-24.1 151.21-24.73 150.58-25.35 149.23-25.35L149.23-25.35Q147.93-25.35 147.26-24.75 146.58-24.15 146.33-22.73 146.08-21.3 146.08-18.8L146.08-18.8Z" opacity="1" transform="matrix(1,0,0,1,0,0)" fill="white" class="wordmark-text-0"></path></svg></g></svg></g></svg></g></svg></g></svg></g></svg></g><defs><mask></mask></defs></svg><rect width="395.52" height="68.71434728590054" fill="black" stroke="none" visibility="hidden"></rect></g></mask><linearGradient x1="0" x2="1" y1="0.548" y2="0.55" id="ce094081-69a4-4991-b0ec-e851d057b3e8"><stop stop-color="#ff6cab" offset="0"></stop><stop stop-color="#7366ff" offset="1"></stop></linearGradient><rect width="395.52" height="68.71434728590054" fill="#ffffff" mask="url(#c5e0d99c-364a-4428-8db8-870ec1206f20)" data-fill-palette-color="primary"></rect><mask id="f8e03c59-8ba6-4f44-b46a-b0b2f2d05ece"><g id="SvgjsG1151"><svg viewBox="0 0 395.52 68.71434728590054" height="68.71434728590054" width="395.52"><g><svg viewBox="0 0 460.5383882980336 80.0101" height="68.71434728590054" width="395.52"><g><svg viewBox="0 0 460.5383882980336 80.0101" height="80.0101" width="460.5383882980336"><g id="SvgjsG1150"><svg viewBox="0 0 460.5383882980336 80.0101" height="80.0101" width="460.5383882980336" id="SvgjsSvg1149"><g><svg viewBox="0 0 460.5383882980336 80.0101" height="80.0101" width="460.5383882980336"><g><svg><g></g><g></g></svg></g><g><svg><g></g><g><svg></svg></g></svg></g><g id="SvgjsG1148"><svg viewBox="0 0 460.5383882980336 80.0101" height="80.0101" width="460.5383882980336"><g><svg xmlns="http://www.w3.org/2000/svg" xmlns:xlink="http://www.w3.org/1999/xlink" version="1.1" x="0" y="0" viewBox="2.474 31.334000000000003 94.902 39.566" enable-background="new 0 0 100 100" xml:space="preserve" height="80.0101" width="191.91018829803363" class="icon-cg-0" data-fill-palette-color="accent" id="SvgjsSvg1147"><g fill="white"><path d="M92.292 35.549H76.211v-0.821c0-1.871-1.522-3.394-3.395-3.394H27.033c-1.872 0-3.395 1.522-3.395 3.394v0.821H7.558c-2.804 0-5.084 2.281-5.084 5.083v25.184c0 2.802 2.28 5.084 5.084 5.084h84.734c2.803 0 5.084-2.282 5.084-5.084V40.632C97.376 37.83 95.095 35.549 92.292 35.549zM94.562 65.815c0 1.251-1.019 2.27-2.27 2.27H7.558c-1.252 0-2.271-1.019-2.271-2.27V40.632c0-1.251 1.019-2.27 2.271-2.27h17.488c0.776 0 1.406-0.629 1.406-1.406v-2.229c0-0.319 0.261-0.58 0.581-0.58h45.783c0.32 0 0.58 0.261 0.58 0.58v2.229c0 0.777 0.631 1.406 1.407 1.406h17.488c1.251 0 2.27 1.019 2.27 2.27V65.815z" fill="white"></path><path d="M89.97 63.221H74.728c-0.776 0-1.407 0.631-1.407 1.406 0 0.777 0.631 1.408 1.407 1.408H89.97c0.776 0 1.407-0.631 1.407-1.408C91.377 63.852 90.746 63.221 89.97 63.221z" fill="white"></path><path d="M70.279 63.221H59.903c-0.777 0-1.407 0.631-1.407 1.406 0 0.777 0.63 1.408 1.407 1.408h10.376c0.776 0 1.407-0.631 1.407-1.408C71.687 63.852 71.056 63.221 70.279 63.221z" fill="white"></path><path d="M56.206 63.221H28.255c-0.776 0-1.406 0.631-1.406 1.406 0 0.777 0.63 1.408 1.406 1.408h27.951c0.776 0 1.407-0.631 1.407-1.408C57.613 63.852 56.982 63.221 56.206 63.221z" fill="white"></path><path d="M24.234 63.221H9.879c-0.777 0-1.406 0.631-1.406 1.406 0 0.777 0.629 1.408 1.406 1.408h14.355c0.777 0 1.407-0.631 1.407-1.408C25.642 63.852 25.012 63.221 24.234 63.221z" fill="white"></path><path d="M89.97 57.709H74.728c-0.776 0-1.407 0.629-1.407 1.405 0 0.778 0.631 1.409 1.407 1.409H89.97c0.776 0 1.407-0.631 1.407-1.409C91.377 58.338 90.746 57.709 89.97 57.709z" fill="white"></path><path d="M70.297 57.709h-6.153c-0.776 0-1.407 0.629-1.407 1.405 0 0.778 0.631 1.409 1.407 1.409h6.153c0.776 0 1.407-0.631 1.407-1.409C71.704 58.338 71.073 57.709 70.297 57.709z" fill="white"></path><path d="M17.699 57.709c-0.777 0-1.406 0.629-1.406 1.405 0 0.778 0.629 1.409 1.406 1.409h42.224c0.776 0 1.407-0.631 1.407-1.409 0-0.776-0.631-1.405-1.407-1.405H17.699z" fill="white"></path><path d="M9.879 60.523h3.967c0.777 0 1.407-0.631 1.407-1.409 0-0.776-0.63-1.405-1.407-1.405H9.879c-0.777 0-1.406 0.629-1.406 1.405C8.473 59.893 9.102 60.523 9.879 60.523z" fill="white"></path><path d="M89.97 52.196H74.728c-0.776 0-1.407 0.63-1.407 1.406 0 0.777 0.631 1.407 1.407 1.407H89.97c0.776 0 1.407-0.63 1.407-1.407C91.377 52.826 90.746 52.196 89.97 52.196z" fill="white"></path><path d="M70.297 46.685h-4.759c-0.776 0-1.407 0.629-1.407 1.405 0 0.778 0.631 1.407 1.407 1.407h3.352v3.847c0 0.778 0.631 1.407 1.407 1.407s1.407-0.629 1.407-1.407V48.09C71.704 47.313 71.073 46.685 70.297 46.685z" fill="white"></path><path d="M66.863 53.603c0-0.776-0.631-1.406-1.407-1.406H20.04c-0.777 0-1.407 0.63-1.407 1.406 0 0.777 0.63 1.407 1.407 1.407h45.416C66.232 55.01 66.863 54.38 66.863 53.603z" fill="white"></path><path d="M9.879 55.01h6.02c0.776 0 1.406-0.63 1.406-1.407 0-0.776-0.63-1.406-1.406-1.406h-6.02c-0.777 0-1.406 0.63-1.406 1.406C8.473 54.38 9.102 55.01 9.879 55.01z" fill="white"></path><path d="M89.97 46.685H74.728c-0.776 0-1.407 0.629-1.407 1.405 0 0.778 0.631 1.407 1.407 1.407H89.97c0.776 0 1.407-0.629 1.407-1.407C91.377 47.313 90.746 46.685 89.97 46.685z" fill="white"></path><path d="M9.879 49.497h51.639c0.776 0 1.407-0.629 1.407-1.407 0-0.776-0.631-1.405-1.407-1.405H9.879c-0.777 0-1.406 0.629-1.406 1.405C8.473 48.868 9.102 49.497 9.879 49.497z" fill="white"></path><path d="M89.97 41.172H74.728c-0.776 0-1.407 0.63-1.407 1.406 0 0.777 0.631 1.407 1.407 1.407H89.97c0.776 0 1.407-0.63 1.407-1.407C91.377 41.802 90.746 41.172 89.97 41.172z" fill="white"></path><path d="M70.297 41.172h-9.518c-0.776 0-1.407 0.63-1.407 1.406 0 0.777 0.631 1.407 1.407 1.407h9.518c0.776 0 1.407-0.63 1.407-1.407C71.704 41.802 71.073 41.172 70.297 41.172z" fill="white"></path><path d="M43.385 43.985h12.964c0.776 0 1.407-0.63 1.407-1.407 0-0.776-0.631-1.406-1.407-1.406H43.385c-0.776 0-1.407 0.63-1.407 1.406C41.978 43.355 42.608 43.985 43.385 43.985z" fill="white"></path><path d="M23.773 43.985h15.181c0.776 0 1.407-0.63 1.407-1.407 0-0.776-0.631-1.406-1.407-1.406H23.773c-0.776 0-1.406 0.63-1.406 1.406C22.367 43.355 22.997 43.985 23.773 43.985z" fill="white"></path><path d="M9.879 43.985h9.957c0.777 0 1.406-0.63 1.406-1.407 0-0.776-0.629-1.406-1.406-1.406H9.879c-0.777 0-1.406 0.63-1.406 1.406C8.473 43.355 9.102 43.985 9.879 43.985z" fill="white"></path></g></svg></g><g transform="matrix(1,0,0,1,210.80008829803364,0)"><svg width="249.7383" viewBox="3.15 -40.5 154.32999999999998 49.45" height="80.0101" data-palette-color="url(#ce094081-69a4-4991-b0ec-e851d057b3e8)"></svg></g></svg></g></svg></g></svg></g></svg></g></svg></g><defs><mask></mask></defs><mask><g id="SvgjsG1146"><svg viewBox="0 0 395.52 68.71434728590054" height="68.71434728590054" width="395.52"><g><svg viewBox="0 0 460.5383882980336 80.0101" height="68.71434728590054" width="395.52"><g><svg viewBox="0 0 460.5383882980336 80.0101" height="80.0101" width="460.5383882980336"><g id="SvgjsG1145"><svg viewBox="0 0 460.5383882980336 80.0101" height="80.0101" width="460.5383882980336" id="SvgjsSvg1144"><g><svg viewBox="0 0 460.5383882980336 80.0101" height="80.0101" width="460.5383882980336"><g><svg><g></g><g></g></svg></g><g><svg><g></g><g><svg></svg></g></svg></g><g id="SvgjsG1143"><svg viewBox="0 0 460.5383882980336 80.0101" height="80.0101" width="460.5383882980336"><g><svg xmlns="http://www.w3.org/2000/svg" xmlns:xlink="http://www.w3.org/1999/xlink" version="1.1" x="0" y="0" viewBox="2.474 31.334000000000003 94.902 39.566" enable-background="new 0 0 100 100" xml:space="preserve" height="80.0101" width="191.91018829803363" class="icon-cg-0" data-fill-palette-color="accent" id="SvgjsSvg1142"><g fill="black"><path d="M92.292 35.549H76.211v-0.821c0-1.871-1.522-3.394-3.395-3.394H27.033c-1.872 0-3.395 1.522-3.395 3.394v0.821H7.558c-2.804 0-5.084 2.281-5.084 5.083v25.184c0 2.802 2.28 5.084 5.084 5.084h84.734c2.803 0 5.084-2.282 5.084-5.084V40.632C97.376 37.83 95.095 35.549 92.292 35.549zM94.562 65.815c0 1.251-1.019 2.27-2.27 2.27H7.558c-1.252 0-2.271-1.019-2.271-2.27V40.632c0-1.251 1.019-2.27 2.271-2.27h17.488c0.776 0 1.406-0.629 1.406-1.406v-2.229c0-0.319 0.261-0.58 0.581-0.58h45.783c0.32 0 0.58 0.261 0.58 0.58v2.229c0 0.777 0.631 1.406 1.407 1.406h17.488c1.251 0 2.27 1.019 2.27 2.27V65.815z" fill="black"></path><path d="M89.97 63.221H74.728c-0.776 0-1.407 0.631-1.407 1.406 0 0.777 0.631 1.408 1.407 1.408H89.97c0.776 0 1.407-0.631 1.407-1.408C91.377 63.852 90.746 63.221 89.97 63.221z" fill="black"></path><path d="M70.279 63.221H59.903c-0.777 0-1.407 0.631-1.407 1.406 0 0.777 0.63 1.408 1.407 1.408h10.376c0.776 0 1.407-0.631 1.407-1.408C71.687 63.852 71.056 63.221 70.279 63.221z" fill="black"></path><path d="M56.206 63.221H28.255c-0.776 0-1.406 0.631-1.406 1.406 0 0.777 0.63 1.408 1.406 1.408h27.951c0.776 0 1.407-0.631 1.407-1.408C57.613 63.852 56.982 63.221 56.206 63.221z" fill="black"></path><path d="M24.234 63.221H9.879c-0.777 0-1.406 0.631-1.406 1.406 0 0.777 0.629 1.408 1.406 1.408h14.355c0.777 0 1.407-0.631 1.407-1.408C25.642 63.852 25.012 63.221 24.234 63.221z" fill="black"></path><path d="M89.97 57.709H74.728c-0.776 0-1.407 0.629-1.407 1.405 0 0.778 0.631 1.409 1.407 1.409H89.97c0.776 0 1.407-0.631 1.407-1.409C91.377 58.338 90.746 57.709 89.97 57.709z" fill="black"></path><path d="M70.297 57.709h-6.153c-0.776 0-1.407 0.629-1.407 1.405 0 0.778 0.631 1.409 1.407 1.409h6.153c0.776 0 1.407-0.631 1.407-1.409C71.704 58.338 71.073 57.709 70.297 57.709z" fill="black"></path><path d="M17.699 57.709c-0.777 0-1.406 0.629-1.406 1.405 0 0.778 0.629 1.409 1.406 1.409h42.224c0.776 0 1.407-0.631 1.407-1.409 0-0.776-0.631-1.405-1.407-1.405H17.699z" fill="black"></path><path d="M9.879 60.523h3.967c0.777 0 1.407-0.631 1.407-1.409 0-0.776-0.63-1.405-1.407-1.405H9.879c-0.777 0-1.406 0.629-1.406 1.405C8.473 59.893 9.102 60.523 9.879 60.523z" fill="black"></path><path d="M89.97 52.196H74.728c-0.776 0-1.407 0.63-1.407 1.406 0 0.777 0.631 1.407 1.407 1.407H89.97c0.776 0 1.407-0.63 1.407-1.407C91.377 52.826 90.746 52.196 89.97 52.196z" fill="black"></path><path d="M70.297 46.685h-4.759c-0.776 0-1.407 0.629-1.407 1.405 0 0.778 0.631 1.407 1.407 1.407h3.352v3.847c0 0.778 0.631 1.407 1.407 1.407s1.407-0.629 1.407-1.407V48.09C71.704 47.313 71.073 46.685 70.297 46.685z" fill="black"></path><path d="M66.863 53.603c0-0.776-0.631-1.406-1.407-1.406H20.04c-0.777 0-1.407 0.63-1.407 1.406 0 0.777 0.63 1.407 1.407 1.407h45.416C66.232 55.01 66.863 54.38 66.863 53.603z" fill="black"></path><path d="M9.879 55.01h6.02c0.776 0 1.406-0.63 1.406-1.407 0-0.776-0.63-1.406-1.406-1.406h-6.02c-0.777 0-1.406 0.63-1.406 1.406C8.473 54.38 9.102 55.01 9.879 55.01z" fill="black"></path><path d="M89.97 46.685H74.728c-0.776 0-1.407 0.629-1.407 1.405 0 0.778 0.631 1.407 1.407 1.407H89.97c0.776 0 1.407-0.629 1.407-1.407C91.377 47.313 90.746 46.685 89.97 46.685z" fill="black"></path><path d="M9.879 49.497h51.639c0.776 0 1.407-0.629 1.407-1.407 0-0.776-0.631-1.405-1.407-1.405H9.879c-0.777 0-1.406 0.629-1.406 1.405C8.473 48.868 9.102 49.497 9.879 49.497z" fill="black"></path><path d="M89.97 41.172H74.728c-0.776 0-1.407 0.63-1.407 1.406 0 0.777 0.631 1.407 1.407 1.407H89.97c0.776 0 1.407-0.63 1.407-1.407C91.377 41.802 90.746 41.172 89.97 41.172z" fill="black"></path><path d="M70.297 41.172h-9.518c-0.776 0-1.407 0.63-1.407 1.406 0 0.777 0.631 1.407 1.407 1.407h9.518c0.776 0 1.407-0.63 1.407-1.407C71.704 41.802 71.073 41.172 70.297 41.172z" fill="black"></path><path d="M43.385 43.985h12.964c0.776 0 1.407-0.63 1.407-1.407 0-0.776-0.631-1.406-1.407-1.406H43.385c-0.776 0-1.407 0.63-1.407 1.406C41.978 43.355 42.608 43.985 43.385 43.985z" fill="black"></path><path d="M23.773 43.985h15.181c0.776 0 1.407-0.63 1.407-1.407 0-0.776-0.631-1.406-1.407-1.406H23.773c-0.776 0-1.406 0.63-1.406 1.406C22.367 43.355 22.997 43.985 23.773 43.985z" fill="black"></path><path d="M9.879 43.985h9.957c0.777 0 1.406-0.63 1.406-1.407 0-0.776-0.629-1.406-1.406-1.406H9.879c-0.777 0-1.406 0.63-1.406 1.406C8.473 43.355 9.102 43.985 9.879 43.985z" fill="black"></path></g></svg></g><g transform="matrix(1,0,0,1,210.80008829803364,0)"><svg width="249.7383" viewBox="3.15 -40.5 154.32999999999998 49.45" height="80.0101" data-palette-color="url(#ce094081-69a4-4991-b0ec-e851d057b3e8)"><path d="M8.8 0L3.15 0 3.15-40.5 8.8-40.5 8.8-21.4 18.1-40.5 23.35-40.5 15.35-22.65 24.65 0 19.15 0 11.4-19 8.8-14.3 8.8 0ZM35.45 0.4L35.45 0.4Q32.05 0.4 30.2-0.93 28.35-2.25 27.62-4.83 26.9-7.4 26.9-11.15L26.9-11.15 26.9-17.75Q26.9-21.6 27.65-24.15 28.4-26.7 30.27-28 32.15-29.3 35.45-29.3L35.45-29.3Q39.1-29.3 40.82-27.8 42.55-26.3 43.1-23.48 43.65-20.65 43.65-16.7L43.65-16.7 43.65-14.35 32.25-14.35 32.25-8.55Q32.25-6.8 32.57-5.7 32.9-4.6 33.62-4.08 34.35-3.55 35.5-3.55L35.5-3.55Q36.7-3.55 37.32-4.13 37.95-4.7 38.17-5.78 38.4-6.85 38.4-8.3L38.4-8.3 38.4-10.05 43.6-10.05 43.6-8.95Q43.6-4.6 41.75-2.1 39.9 0.4 35.45 0.4ZM32.25-18.8L32.25-17.25 38.4-17.25 38.4-19.85Q38.4-21.65 38.2-22.88 38-24.1 37.37-24.73 36.75-25.35 35.4-25.35L35.4-25.35Q34.1-25.35 33.42-24.75 32.75-24.15 32.5-22.73 32.25-21.3 32.25-18.8L32.25-18.8ZM48.7 7.25L48.05 7.25 48.05 3.15Q50 3.15 51.15 2.98 52.3 2.8 52.8 2.33 53.3 1.85 53.3 1L53.3 1Q53.3 0.55 52.95-1 52.59-2.55 52.2-4.3L52.2-4.3 46.4-28.9 51.8-28.9 55.7-7.3 59.45-28.9 64.84-28.9 57.95 1.6Q57.5 3.7 56.3 4.93 55.09 6.15 53.22 6.7 51.34 7.25 48.7 7.25L48.7 7.25ZM75.14 0L69.79 0 69.79-24.95 66.34-24.95 66.34-28.9 69.79-28.9 69.79-30.4Q69.79-33.1 70.22-35.02 70.64-36.95 71.99-38 73.34-39.05 76.04-39.05L76.04-39.05Q77.04-39.05 77.82-38.98 78.59-38.9 79.54-38.7L79.54-38.7 79.54-34.8Q79.09-34.9 78.54-34.98 77.99-35.05 77.54-35.05L77.54-35.05Q75.99-35.05 75.57-34.02 75.14-33 75.14-31.3L75.14-31.3 75.14-28.9 79.54-28.9 79.54-24.95 75.14-24.95 75.14 0ZM90.39 0.4L90.39 0.4Q87.19 0.4 85.34-0.9 83.49-2.2 82.72-4.6 81.94-7 81.94-10.25L81.94-10.25 81.94-18.65Q81.94-21.9 82.72-24.3 83.49-26.7 85.34-28 87.19-29.3 90.39-29.3L90.39-29.3Q93.59-29.3 95.42-28 97.24-26.7 98.02-24.3 98.79-21.9 98.79-18.65L98.79-18.65 98.79-10.25Q98.79-7 98.02-4.6 97.24-2.2 95.42-0.9 93.59 0.4 90.39 0.4ZM90.39-3.55L90.39-3.55Q91.94-3.55 92.57-4.45 93.19-5.35 93.32-6.83 93.44-8.3 93.44-9.9L93.44-9.9 93.44-18.95Q93.44-20.6 93.32-22.05 93.19-23.5 92.57-24.43 91.94-25.35 90.39-25.35L90.39-25.35Q88.84-25.35 88.19-24.43 87.54-23.5 87.42-22.05 87.29-20.6 87.29-18.95L87.29-18.95 87.29-9.9Q87.29-8.3 87.42-6.83 87.54-5.35 88.19-4.45 88.84-3.55 90.39-3.55ZM109.19 0L103.84 0 103.84-28.9 109.19-28.9 109.19-24.8Q110.79-27.45 112.39-28.35 113.99-29.25 115.59-29.25L115.59-29.25Q115.79-29.25 115.96-29.25 116.14-29.25 116.44-29.2L116.44-29.2 116.44-23.3Q115.84-23.55 115.06-23.73 114.29-23.9 113.49-23.9L113.49-23.9Q112.24-23.9 111.21-23.33 110.19-22.75 109.19-21.1L109.19-21.1 109.19 0ZM127.24 8.95L127.24 8.95Q124.64 8.95 122.54 8.4 120.44 7.85 119.24 6.65 118.04 5.45 118.04 3.5L118.04 3.5Q118.04 2.1 118.64 1.05 119.24 0 120.19-0.78 121.14-1.55 122.19-2.05L122.19-2.05Q120.79-2.45 120.09-3.33 119.39-4.2 119.39-5.15L119.39-5.15Q119.39-6.75 120.24-7.9 121.09-9.05 122.59-10.4L122.59-10.4Q120.94-11.65 120.09-13.6 119.24-15.55 119.24-19L119.24-19Q119.24-22.4 120.16-24.68 121.09-26.95 122.91-28.13 124.74-29.3 127.39-29.3L127.39-29.3Q129.74-29.3 131.16-28.5 132.59-27.7 133.34-26.1L133.34-26.1Q133.59-26.5 134.69-27.48 135.79-28.45 137.24-29.1L137.24-29.1 138.04-29.45 139.39-26Q138.74-25.9 137.66-25.53 136.59-25.15 135.66-24.78 134.74-24.4 134.49-24.15L134.49-24.15Q134.84-23.3 135.11-21.7 135.39-20.1 135.39-18.85L135.39-18.85Q135.39-15.9 134.64-13.65 133.89-11.4 132.16-10.13 130.44-8.85 127.39-8.85L127.39-8.85Q126.74-8.85 125.99-8.95 125.24-9.05 124.64-9.2L124.64-9.2Q124.34-8.75 124.01-8.15 123.69-7.55 123.69-7L123.69-7Q123.69-6.45 124.26-6.13 124.84-5.8 126.09-5.7L126.09-5.7 130.59-5.3Q133.99-5 135.64-3.25 137.29-1.5 137.29 1.75L137.29 1.75Q137.29 4.1 136.19 5.73 135.09 7.35 132.86 8.15 130.64 8.95 127.24 8.95ZM127.64 4.75L127.64 4.75Q130.49 4.75 131.84 4.08 133.19 3.4 133.19 1.9L133.19 1.9Q133.19 1 132.86 0.4 132.54-0.2 131.69-0.55 130.84-0.9 129.24-1.05L129.24-1.05 124.69-1.45Q124.14-0.9 123.64-0.35 123.14 0.2 122.84 0.83 122.54 1.45 122.54 2.15L122.54 2.15Q122.54 3.45 123.64 4.1 124.74 4.75 127.64 4.75ZM127.39-12.6L127.39-12.6Q128.54-12.6 129.21-13.03 129.89-13.45 130.24-14.28 130.59-15.1 130.71-16.3 130.84-17.5 130.84-19L130.84-19Q130.84-20.5 130.71-21.73 130.59-22.95 130.26-23.83 129.94-24.7 129.26-25.15 128.59-25.6 127.44-25.6L127.44-25.6Q126.34-25.6 125.61-25.15 124.89-24.7 124.54-23.88 124.19-23.05 124.04-21.83 123.89-20.6 123.89-19L123.89-19Q123.89-17.65 124.01-16.48 124.14-15.3 124.51-14.45 124.89-13.6 125.59-13.1 126.29-12.6 127.39-12.6ZM149.28 0.4L149.28 0.4Q145.88 0.4 144.03-0.93 142.18-2.25 141.46-4.83 140.73-7.4 140.73-11.15L140.73-11.15 140.73-17.75Q140.73-21.6 141.48-24.15 142.23-26.7 144.11-28 145.98-29.3 149.28-29.3L149.28-29.3Q152.93-29.3 154.66-27.8 156.38-26.3 156.93-23.48 157.48-20.65 157.48-16.7L157.48-16.7 157.48-14.35 146.08-14.35 146.08-8.55Q146.08-6.8 146.41-5.7 146.73-4.6 147.46-4.08 148.18-3.55 149.33-3.55L149.33-3.55Q150.53-3.55 151.16-4.13 151.78-4.7 152.01-5.78 152.23-6.85 152.23-8.3L152.23-8.3 152.23-10.05 157.43-10.05 157.43-8.95Q157.43-4.6 155.58-2.1 153.73 0.4 149.28 0.4ZM146.08-18.8L146.08-17.25 152.23-17.25 152.23-19.85Q152.23-21.65 152.03-22.88 151.83-24.1 151.21-24.73 150.58-25.35 149.23-25.35L149.23-25.35Q147.93-25.35 147.26-24.75 146.58-24.15 146.33-22.73 146.08-21.3 146.08-18.8L146.08-18.8Z" opacity="1" transform="matrix(1,0,0,1,0,0)" fill="black" class="wordmark-text-0"></path></svg></g></svg></g></svg></g></svg></g></svg></g></svg></g><defs><mask></mask></defs></svg><rect width="395.52" height="68.71434728590054" fill="black" stroke="none" visibility="hidden"></rect></g></mask></svg><rect width="395.52" height="68.71434728590054" fill="black" stroke="none" visibility="hidden"></rect></g></mask><linearGradient x1="0" x2="1" y1="0.548" y2="0.55" id="da8e0601-7b17-445d-b83b-138e4035d411"><stop stop-color="#ff6cab" offset="0"></stop><stop stop-color="#7366ff" offset="1"></stop></linearGradient><rect width="395.52" height="68.71434728590054" fill="#ffffff" mask="url(#f8e03c59-8ba6-4f44-b46a-b0b2f2d05ece)" data-fill-palette-color="accent"></rect></svg><rect width="395.52" height="68.71434728590054" fill="none" stroke="none" visibility="hidden"></rect></g></svg></g></svg>